<mxfile host="app.diagrams.net" modified="2024-06-17T12:53:11.063Z" agent="Mozilla/5.0 (Macintosh; Intel Mac OS X 10_15_7) AppleWebKit/537.36 (KHTML, like Gecko) Chrome/125.0.0.0 Safari/537.36" version="24.5.4" etag="IhdQXDbf3eo4kCm_7dxr" type="github">
  <diagram name="Trang-1" id="h_AZMWWuFDURpTh89bRc">
    <mxGraphModel>
      <root>
        <mxCell id="0" />
        <mxCell id="1" parent="0" />
      </root>
    </mxGraphModel>
  </diagram>
</mxfile>
